<svg width="40" height="40" viewBox="0 0 40 40" fill="none" xmlns="http://www.w3.org/2000/svg">
<path d="M3.53812 32.6501C3.53812 33.3289 2.74563 33.8814 1.77 33.8814C0.79 33.8814 0 33.3289 0 32.6501V7.22951C0 6.54701 0.79 5.99701 1.77 5.99701C2.74563 5.99701 3.53812 6.54638 3.53812 7.22951V32.6501Z" fill="black"/>
<path d="M40 32.9869C40 33.4832 39.29 33.8813 38.4112 33.8813C37.5344 33.8813 36.8237 33.4832 36.8237 32.9869V14.5269C36.8237 14.0332 37.5344 13.6307 38.4112 13.6307C39.29 13.6307 40 14.0338 40 14.5269V32.9869" fill="black"/>
<path d="M36.525 19.1138C37.3994 19.1138 38.1069 21.1925 38.1069 23.7575C38.1069 26.3219 37.3994 28.4006 36.525 28.4006H3.83129C2.95879 28.4006 2.24817 26.3219 2.24817 23.7575C2.24817 21.1925 2.95879 19.1138 3.83129 19.1138H36.525" fill="black"/>
<path d="M12.0612 12.7157C12.6256 14.6369 11.6831 16.6007 9.95557 17.1032C8.2312 17.6088 6.37745 16.4632 5.81307 14.5432C5.2512 12.6269 6.1962 10.6594 7.9212 10.1494C9.64682 9.64255 11.4993 10.7907 12.0612 12.7094" fill="black"/>
<path d="M12 17.3539C12 17.3539 18.925 5.30764 34.1888 17.3539H12Z" fill="black"/>
</svg>
