<svg width="40" height="40" viewBox="0 0 40 40" fill="none" xmlns="http://www.w3.org/2000/svg">
<path d="M14 9C13.4 9 13 9.6 13 10V15H11V10C11 9.4 10.6 9 10 9C9.4 9 9 9.6 9 10V15H7V10C7 9.4 6.6 9 6 9C5.4 9 5 9.6 5 10V16.6C5 18.4 6.4 19.8 8 20V34C8 35.2 8.8 36 10 36C11.2 36 12 35.2 12 34V20C13.6 19.8 15 18.4 15 16.6V10C15 9.6 14.6 9 14 9ZM18 10V22H20V34C20 35.2 20.8 36 22 36C23.2 36 24 35.2 24 34V4C20.6 4 18 6.6 18 10ZM32 8C29.2 8 27 11 27 14.6C26.8 17 28 19.2 30 20.6V34C30 35.2 30.8 36 32 36C33.2 36 34 35.2 34 34V20.6C36 19.2 37.2 17 37 14.6C37 11 34.8 8 32 8Z" fill="black"/>
</svg>
